<svg width="46" height="33" viewBox="0 0 46 33" fill="none" xmlns="http://www.w3.org/2000/svg">
<g filter="url(#filter0_d_0_4145)">
<path d="M37.9097 24.4386V3.37465L7.76843 3.37465L7.76843 24.4386H16.8397V23.9534H28.8399V24.4386L37.9097 24.4386Z" fill="#CCCCCC"/>
<path d="M7.76825 -1.71661e-05L7.76825 20.907L37.9095 20.907V-1.71661e-05H28.8397V0.486408L16.8395 0.486408V-1.71661e-05H7.76825Z" fill="#CCCCCC"/>
<path d="M30.2714 12.2225C30.2714 8.49719 26.9447 5.47719 22.841 5.47719C18.7373 5.47719 15.4106 8.49719 15.4106 12.2225C15.4106 15.9479 18.7373 18.9679 22.841 18.9679C26.9447 18.9679 30.2714 15.9479 30.2714 12.2225Z" fill="#641D1C"/>
<path opacity="0.2" d="M30.2685 11.893C30.2685 8.16638 26.9447 5.14633 22.8425 5.14633C18.7388 5.14633 15.4077 8.16374 15.4077 11.893V12.2212C15.4077 8.49462 18.7359 5.47457 22.8425 5.47457C26.9447 5.47457 30.2685 8.49462 30.2685 12.2212V11.893Z" fill="black"/>
<path d="M29.9999 12.2212C29.9999 8.63202 26.7948 5.72239 22.841 5.72239C18.8873 5.72239 15.6822 8.63202 15.6822 12.2212C15.6822 15.8104 18.8873 18.7201 22.841 18.7201C26.7948 18.7201 29.9999 15.8104 29.9999 12.2212Z" fill="#852725"/>
<path d="M29.9984 12.3741C29.9984 8.78565 26.7939 5.87661 22.841 5.87661C18.8881 5.87661 15.6836 8.78565 15.6836 12.3741C15.6836 15.9626 18.8881 18.8717 22.841 18.8717C26.7939 18.8717 29.9984 15.9626 29.9984 12.3741Z" fill="#852725"/>
<path opacity="0.1" d="M23.0109 18.7187C26.9665 18.7187 30.1713 15.8107 30.1713 12.2186C30.1713 8.62773 26.9665 5.72105 23.0109 5.72105H22.6726C26.6281 5.72105 29.8329 8.63169 29.8329 12.2186C29.8329 15.8107 26.6281 18.7187 22.6726 18.7187H23.0109Z" fill="black"/>
<path opacity="0.2" d="M23.0109 5.72239C19.0539 5.72239 15.8521 8.63303 15.8521 12.2199C15.8521 15.8121 19.0539 18.7201 23.0109 18.7201H22.6726C18.7171 18.7201 15.5123 15.8121 15.5123 12.2199C15.5123 8.62907 18.7171 5.72239 22.6726 5.72239H23.0109Z" fill="white"/>
<path opacity="0.2" d="M7.76322 24.4383L16.8359 24.4383L16.8359 23.9492L7.76322 23.9492L7.76322 24.4383Z" fill="white"/>
<path opacity="0.2" d="M28.8385 24.4379L37.9054 24.4379L37.9054 23.9488L28.8385 23.9488L28.8385 24.4379Z" fill="white"/>
<path opacity="0.2" d="M16.8342 23.9529L28.8372 23.9529L28.8372 23.4678L16.8342 23.4678L16.8342 23.9529Z" fill="white"/>
<path opacity="0.2" d="M7.76322 0.502554L16.8359 0.502533L16.8359 0.0174261L7.76322 0.017447L7.76322 0.502554Z" fill="black"/>
<path opacity="0.2" d="M28.8368 0.50704L37.9037 0.507019L37.9037 0.0205947L28.8368 0.0206156L28.8368 0.50704Z" fill="black"/>
<path opacity="0.2" d="M16.8347 0.992154L28.8392 0.992126L28.8392 0.505702L16.8347 0.50573L16.8347 0.992154Z" fill="black"/>
<path d="M41.9361 18.811H37.9429V21.7783H41.9361V18.811Z" fill="#E6E6E6"/>
<path d="M41.9361 2.66148L37.9429 2.66148V5.63012H41.9361V2.66148Z" fill="#E6E6E6"/>
<path d="M7.99327 9.85767H4L4 14.362H7.99327V9.85767Z" fill="#E6E6E6"/>
<path d="M7.99327 18.811H4L4 21.7784H7.99327V18.811Z" fill="#E6E6E6"/>
<path d="M7.99327 2.66176L4 2.66176L4 5.6304H7.99327V2.66176Z" fill="#E6E6E6"/>
<path opacity="0.2" d="M4.485 9.85767H4L4 14.362H4.485V9.85767Z" fill="white"/>
<path opacity="0.2" d="M4.485 18.811H4L4 21.7784H4.485V18.811Z" fill="white"/>
<path opacity="0.2" d="M4.485 2.66176H4L4 5.6304H4.485V2.66176Z" fill="white"/>
<path opacity="0.2" d="M42 18.786H41.849V21.7533H42V18.786Z" fill="black"/>
<path opacity="0.2" d="M42 2.63641H41.849V5.60505H42V2.63641Z" fill="black"/>
<path opacity="0.1" d="M38.4511 18.8282H37.9661V21.7955H38.4511V18.8282Z" fill="black"/>
<path opacity="0.1" d="M38.4511 2.6786H37.9661V5.64724H38.4511V2.6786Z" fill="black"/>
</g>
<defs>
<filter id="filter0_d_0_4145" x="0" y="-1.52588e-05" width="46" height="32.4386" filterUnits="userSpaceOnUse" color-interpolation-filters="sRGB">
<feFlood flood-opacity="0" result="BackgroundImageFix"/>
<feColorMatrix in="SourceAlpha" type="matrix" values="0 0 0 0 0 0 0 0 0 0 0 0 0 0 0 0 0 0 127 0" result="hardAlpha"/>
<feOffset dy="4"/>
<feGaussianBlur stdDeviation="2"/>
<feComposite in2="hardAlpha" operator="out"/>
<feColorMatrix type="matrix" values="0 0 0 0 0 0 0 0 0 0 0 0 0 0 0 0 0 0 0.25 0"/>
<feBlend mode="normal" in2="BackgroundImageFix" result="effect1_dropShadow_0_4145"/>
<feBlend mode="normal" in="SourceGraphic" in2="effect1_dropShadow_0_4145" result="shape"/>
</filter>
</defs>
</svg>
